<svg xmlns="http://www.w3.org/2000/svg" viewBox="0 0 240 180" fill="none">
  <defs>
    <linearGradient id="bizBlob" x1="0" y1="0" x2="1" y2="1">
      <stop offset="0%" stop-color="#FDFAF1"/>
      <stop offset="100%" stop-color="#F5EBD3"/>
    </linearGradient>
    <linearGradient id="bizTower" x1="0" y1="0" x2="0" y2="1">
      <stop offset="0%" stop-color="#1A1A1A"/>
      <stop offset="100%" stop-color="#0A0A0A"/>
    </linearGradient>
    <linearGradient id="bizGlass" x1="0" y1="0" x2="0" y2="1">
      <stop offset="0%" stop-color="#E5C770"/>
      <stop offset="100%" stop-color="#C9A961"/>
    </linearGradient>
    <linearGradient id="bizCrown" x1="0" y1="0" x2="0" y2="1">
      <stop offset="0%" stop-color="#D4AF37"/>
      <stop offset="100%" stop-color="#8B6F2C"/>
    </linearGradient>
  </defs>
  <ellipse cx="120" cy="125" rx="108" ry="50" fill="url(#bizBlob)" opacity="0.95"/>
  <ellipse cx="120" cy="156" rx="80" ry="4" fill="#0A0A0A" opacity="0.14"/>

  <!-- Left tower (shorter) -->
  <rect x="36" y="74" width="44" height="78" fill="url(#bizTower)"/>
  <rect x="34" y="72" width="48" height="6" fill="#0A0A0A"/>
  <!-- Glass panels -->
  <g>
    <rect x="40" y="82" width="36" height="6" fill="url(#bizGlass)" opacity="0.95"/>
    <rect x="40" y="92" width="36" height="6" fill="url(#bizGlass)" opacity="0.78"/>
    <rect x="40" y="102" width="36" height="6" fill="url(#bizGlass)" opacity="0.95"/>
    <rect x="40" y="112" width="36" height="6" fill="url(#bizGlass)" opacity="0.78"/>
    <rect x="40" y="122" width="36" height="6" fill="url(#bizGlass)" opacity="0.95"/>
    <rect x="40" y="132" width="36" height="6" fill="url(#bizGlass)" opacity="0.78"/>
    <rect x="40" y="142" width="36" height="6" fill="url(#bizGlass)" opacity="0.95"/>
  </g>
  <!-- Vertical mullions -->
  <line x1="58" y1="80" x2="58" y2="148" stroke="#0A0A0A" stroke-width="0.8"/>

  <!-- Center main tower (tallest) -->
  <rect x="84" y="42" width="60" height="110" fill="url(#bizTower)"/>
  <rect x="82" y="40" width="64" height="6" fill="#0A0A0A"/>
  <!-- Crown / pinnacle -->
  <path d="M104 42 L120 24 L136 42 Z" fill="url(#bizCrown)"/>
  <line x1="120" y1="24" x2="120" y2="14" stroke="#0A0A0A" stroke-width="1.5"/>
  <circle cx="120" cy="13" r="2" fill="#D4AF37"/>
  <!-- Glass panels grid -->
  <g>
    <rect x="90" y="50" width="20" height="6" fill="url(#bizGlass)" opacity="0.92"/>
    <rect x="118" y="50" width="20" height="6" fill="url(#bizGlass)" opacity="0.78"/>
    <rect x="90" y="60" width="20" height="6" fill="url(#bizGlass)" opacity="0.78"/>
    <rect x="118" y="60" width="20" height="6" fill="url(#bizGlass)" opacity="0.92"/>
    <rect x="90" y="70" width="20" height="6" fill="url(#bizGlass)" opacity="0.92"/>
    <rect x="118" y="70" width="20" height="6" fill="url(#bizGlass)" opacity="0.78"/>
    <rect x="90" y="80" width="20" height="6" fill="url(#bizGlass)" opacity="0.78"/>
    <rect x="118" y="80" width="20" height="6" fill="url(#bizGlass)" opacity="0.92"/>
    <rect x="90" y="90" width="20" height="6" fill="url(#bizGlass)" opacity="0.92"/>
    <rect x="118" y="90" width="20" height="6" fill="url(#bizGlass)" opacity="0.78"/>
    <rect x="90" y="100" width="20" height="6" fill="url(#bizGlass)" opacity="0.78"/>
    <rect x="118" y="100" width="20" height="6" fill="url(#bizGlass)" opacity="0.92"/>
    <rect x="90" y="110" width="20" height="6" fill="url(#bizGlass)" opacity="0.92"/>
    <rect x="118" y="110" width="20" height="6" fill="url(#bizGlass)" opacity="0.78"/>
    <rect x="90" y="120" width="20" height="6" fill="url(#bizGlass)" opacity="0.78"/>
    <rect x="118" y="120" width="20" height="6" fill="url(#bizGlass)" opacity="0.92"/>
    <rect x="90" y="130" width="20" height="6" fill="url(#bizGlass)" opacity="0.92"/>
    <rect x="118" y="130" width="20" height="6" fill="url(#bizGlass)" opacity="0.78"/>
  </g>
  <line x1="114" y1="48" x2="114" y2="138" stroke="#0A0A0A" stroke-width="0.8"/>

  <!-- Entrance -->
  <path d="M104 152 L104 138 L136 138 L136 152 Z" fill="#0A0A0A"/>
  <rect x="118" y="140" width="4" height="12" fill="#D4AF37" opacity="0.85"/>

  <!-- Right tower -->
  <rect x="148" y="62" width="50" height="90" fill="url(#bizTower)"/>
  <rect x="146" y="60" width="54" height="6" fill="#0A0A0A"/>
  <g>
    <rect x="154" y="70" width="40" height="6" fill="url(#bizGlass)" opacity="0.95"/>
    <rect x="154" y="80" width="40" height="6" fill="url(#bizGlass)" opacity="0.78"/>
    <rect x="154" y="90" width="40" height="6" fill="url(#bizGlass)" opacity="0.95"/>
    <rect x="154" y="100" width="40" height="6" fill="url(#bizGlass)" opacity="0.78"/>
    <rect x="154" y="110" width="40" height="6" fill="url(#bizGlass)" opacity="0.95"/>
    <rect x="154" y="120" width="40" height="6" fill="url(#bizGlass)" opacity="0.78"/>
    <rect x="154" y="130" width="40" height="6" fill="url(#bizGlass)" opacity="0.95"/>
    <rect x="154" y="140" width="40" height="6" fill="url(#bizGlass)" opacity="0.78"/>
  </g>
  <line x1="174" y1="68" x2="174" y2="148" stroke="#0A0A0A" stroke-width="0.8"/>

  <!-- Sparkles -->
  <circle cx="20" cy="50" r="2" fill="#D4AF37"/>
  <circle cx="220" cy="60" r="1.8" fill="#C9A961"/>
  <circle cx="22" cy="120" r="1.4" fill="#E5C770"/>
  <path d="M210 30 L216 30 M213 27 L213 33" stroke="#D4AF37" stroke-width="1" stroke-linecap="round"/>
</svg>
